<svg xmlns="http://www.w3.org/2000/svg" viewBox="0 0 678.87 677.71"><defs><style>.cls-1{fill:#79acdc;}.cls-2{fill:#fefefe;}</style></defs><title>face</title><g id="Layer_2" data-name="Layer 2"><g id="Layer_3" data-name="Layer 3"><path class="cls-1" d="M339.45,677.67C155.74,680.52,2.36,528.77,0,343.83-2.39,151.85,155.48-1.43,341.47,0c185.34,1.44,337.26,153,337.4,338.72C679,527.35,523.5,680.73,339.45,677.67Z"/><path class="cls-2" d="M44.94,338.07C45.49,176.19,176.14,43.88,340,44.58c169.58.72,293.2,137.77,294,292.71.84,163.06-130.17,295.3-292.15,296.57C175.86,635.16,43.78,499.9,44.94,338.07Z"/><path class="cls-1" d="M303.08,344.11c-.77-14.6-.77-14.6-16-14.64-6.47,0-12.95.26-19.4-.06-14.52-.7-24.1-9.84-24-22.56.08-13.46,9.76-22.08,24.88-22.16,8.18,0,16.39-.56,24.51.08,7.54.59,10.07-1.63,9.84-9.49-.56-19.39-.19-38.81-.18-58.22,0-41.25,29.19-70.8,70.55-71.38,11.58-.16,23.16-.26,34.73,0,13.5.31,22.95,9.79,22.84,22.39-.1,11.45-10.1,21.75-22.39,22.26-10.88.45-21.79-.06-32.68.15-19.29.38-28.16,9.32-28.22,28.28s.2,38.14-.14,57.2c-.12,6.51,1.68,9,8.57,8.82,15.65-.44,31.32-.13,47-.1,15.13,0,24.28,7.86,24.72,21.12.44,13.67-8.64,23.08-23.79,23.56-14.63.47-29.34.9-43.9-.15-10.89-.78-12.76,3.26-12.67,13.18.46,55.15.25,110.31.15,165.46,0,19.47-13.74,30.61-30.23,24.73-8-2.83-12.95-8.4-14.16-17,1.38-3.64.69-7.42.7-11.13q.08-74.61,0-149.22C303.77,351.53,304.46,347.74,303.08,344.11Z"/></g></g></svg>