<svg xmlns="http://www.w3.org/2000/svg" viewBox="0 0 63.9 63.88"><defs><style>.cls-1{fill:#f18ab9;}.cls-2{fill:#fefefe;}.cls-3{fill:#f7fefc;}.cls-4{fill:#f18bb9;}</style></defs><title>insta</title><g id="Layer_2" data-name="Layer 2"><g id="Layer_3" data-name="Layer 3"><path class="cls-1" d="M32.05,63.88A31.94,31.94,0,1,1,63.89,31.52,32,32,0,0,1,32.05,63.88Z"/><path class="cls-2" d="M31.92,59.64c-15,.18-27.49-12.37-27.71-27.26A27.74,27.74,0,1,1,31.92,59.64Z"/><path class="cls-1" d="M32,15.14c2.44,0,4.88,0,7.31,0a9.37,9.37,0,0,1,9.64,9.65c0,4.88,0,9.75,0,14.63a9.27,9.27,0,0,1-9.55,9.63q-7.36,0-14.72,0A9.29,9.29,0,0,1,15,39.49c0-4.42.05-8.85,0-13.27a12.31,12.31,0,0,1,1.09-6.15,8.72,8.72,0,0,1,7.64-4.88c2.75-.16,5.51,0,8.27,0Z"/><path class="cls-3" d="M13.81,39.39V24H14V39.4Z"/><path class="cls-2" d="M18.12,31.92c0-2.46,0-4.94,0-7.4a6,6,0,0,1,3-5.35,6.91,6.91,0,0,1,3.59-.91H38.42c4.84,0,7.31,2.35,7.39,7.2q.11,6.54,0,13.08a8.18,8.18,0,0,1-1,4.52,6.39,6.39,0,0,1-5.67,2.86c-4.75.07-9.49,0-14.24,0a6.42,6.42,0,0,1-6.74-6.8c0-2.41,0-4.81,0-7.22Z"/><path class="cls-4" d="M40.66,32A8.75,8.75,0,1,1,32,23.23,8.67,8.67,0,0,1,40.66,32Z"/><path class="cls-4" d="M43,23a2,2,0,0,1-1.94,2,2.06,2.06,0,0,1-2.05-2A2.15,2.15,0,0,1,41,21,2,2,0,0,1,43,23Z"/><path class="cls-2" d="M26.39,32A5.61,5.61,0,0,1,32,26.4a5.7,5.7,0,0,1,5.53,5.54A5.58,5.58,0,1,1,26.39,32Z"/></g></g></svg>