<svg xmlns="http://www.w3.org/2000/svg" viewBox="0 0 369.14 343.2"><defs><style>.cls-1,.cls-2{fill:#fff;}.cls-2{font-size:60px;font-family:JapaneseRobot, Japanese Robot;}</style></defs><title>Asset 3</title><g id="Layer_2" data-name="Layer 2"><g id="Layer_3" data-name="Layer 3"><path class="cls-1" d="M250.85,0H118.29a2.18,2.18,0,0,0-1.89,1.1L50.12,115.89a2.2,2.2,0,0,0,0,2.19l7.42,12.86L116.4,232.88a2.17,2.17,0,0,0,1.89,1.09H250.85a2.2,2.2,0,0,0,1.9-1.09L319,118.08a2.2,2.2,0,0,0,0-2.19L252.75,1.1A2.21,2.21,0,0,0,250.85,0Zm1,139.6c-5.8,0-10-3-11.77-9.38-.81-2.84-2-4.06-4.94-4.81-10.77-2.73-18.49-10-25.46-18.17-.57-.67-1.11-1.36-1.7-2.1a2.21,2.21,0,0,0-2.85-.53c-8.65,5.14-12.13,13.21-12.25,23A57.14,57.14,0,0,0,204,162.68c10.92,14.72,11.2,30.39,7.28,47-.15.63-.26,1.27-.37,1.91a2.18,2.18,0,0,1-2.16,1.84h-2.23a2,2,0,0,1-.42,0c-8.33-1.66-16.76-2.9-25-5.1-20.57-5.51-39.48-14.31-52.83-31.66-13.8-17.91-20.48-38-15.09-60.79a75.44,75.44,0,0,1,2.59-8.17,2.2,2.2,0,0,0-3-2.73l-8,3.59a2.19,2.19,0,0,1-2.92-2.84c4.11-9.55,10.68-17.31,18.39-24.08,7.15-6.29,14.76-12.07,22.75-18.29a2.2,2.2,0,0,0-1.56-3.91l-2.64.25a2.19,2.19,0,0,1-1.79-3.7C149.17,43.48,178.32,36.39,206,39.49a2.19,2.19,0,0,0,1.67-.51l16.83-14.45,4.66,2.59,0,.13a2.19,2.19,0,0,0,3.49,2.08l.23-.17a2.19,2.19,0,0,1,3.52,1.76c-.07,6.06-.22,11.78.21,17.44.24,3.17,2.11,6.29,3.53,9.29,5.63,12,11.36,24,17.09,36,2.82,5.9,5.49,11.89,8.61,17.62,3.27,6,4.32,12,2.15,18.58C266,135.64,259.49,139.6,251.83,139.6Z"/><text class="cls-2" transform="translate(0 329.07)">Cultural!</text></g></g></svg>