<svg xmlns="http://www.w3.org/2000/svg" viewBox="0 0 63.84 63.9"><defs><style>.cls-1{fill:#6ec4ef;}.cls-2{fill:#fefefe;}.cls-3{fill:#f2f6f8;}.cls-4{fill:#f5faf9;}</style></defs><title>twit</title><g id="Layer_2" data-name="Layer 2"><g id="Layer_3" data-name="Layer 3"><path class="cls-1" d="M63.83,32.06C64,49.39,49.62,63.79,32.18,63.9A32,32,0,1,1,63.83,32.06Z"/><path class="cls-2" d="M4.26,31.92C4,17.08,16.48,4.05,32.23,4.22a27.74,27.74,0,1,1-.95,55.47C16.55,59.39,4,47,4.26,31.92Z"/><path class="cls-1" d="M50.31,23.16c2.36.4,2.66,2.28,1.93,3.37a2.35,2.35,0,0,1-1.61.95c-1,.18-1.27.69-1.25,1.65a20.34,20.34,0,0,1-3,10.89c-3.27,5.45-8,8.83-14.44,9.45-6,.57-11.53-1.08-16.78-3.83a2.08,2.08,0,0,1-.15-3.74c1.3-.89,2.63-1.71,4-2.5.62-.37.65-.54.09-1a15.08,15.08,0,0,1-4.34-8.59,30,30,0,0,1-.11-10.22,1.89,1.89,0,0,1,1.44-1.63,1.88,1.88,0,0,1,2.18.61,15.31,15.31,0,0,0,4.13,3.69,22.78,22.78,0,0,0,9.18,4.42c1.18.23,1.14.27,1.18-.87a7.7,7.7,0,0,1,4.72-7.22A7.45,7.45,0,0,1,46,19.85c.59.52,1,.55,1.53.07s1.08-.89,1.66-1.3a2.07,2.07,0,0,1,2.85.28,2,2,0,0,1-.12,2.85C51.47,22.23,50.92,22.63,50.31,23.16Z"/><path class="cls-2" d="M22,42.54c.64-.42,1.28-.83,1.91-1.27a1.1,1.1,0,0,1,1-.1,10.37,10.37,0,0,0,3,.21,1.84,1.84,0,0,0,1.93-1.93,1.91,1.91,0,0,0-1.81-2.16,10.63,10.63,0,0,1-4.54-1c-.19-.7-.75-.84-1.36-.92h0c-.07-.18,0-.5-.38-.38h0a.91.91,0,0,1-.09-1.18c-.28,0-.41.38-.72.24-1.46-1.74-1.88-3.88-2.25-6a26.63,26.63,0,0,1-.21-2.68c0-.53.12-.63.58-.31,1.32.91,2.64,1.82,4,2.67A23.88,23.88,0,0,0,33.8,31.2a30.93,30.93,0,0,0,5.36-.06,2.29,2.29,0,0,0,2.29-1.57,2,2,0,0,0-.75-2.3A3.13,3.13,0,0,0,38.2,27c-1.17.13-1.19.15-1.2-1a3.85,3.85,0,0,1,2.71-3.77A3.8,3.8,0,0,1,44,23.88a6.34,6.34,0,0,1,1.16,3.58,17.59,17.59,0,0,1-3.54,12.18c-3.42,4.4-8,6.18-13.51,5.64A25.62,25.62,0,0,1,22.21,44,1.46,1.46,0,0,1,22,42.54Z"/><path class="cls-3" d="M17,56.54c.28.47,0,1,.18,1.49a5.53,5.53,0,0,1-1.57-.54A3.43,3.43,0,0,1,17,56.54Z"/><path class="cls-4" d="M22.21,35.39c.32,0,.57-.54.95,0,.24.3.74.43.41,1A3.61,3.61,0,0,1,22.21,35.39Z"/><path class="cls-4" d="M21,34.06c.09-.08.21-.26.27-.24.42.12.13-.61.49-.43s.11.52,0,.77a1.59,1.59,0,0,0,0,.84A1.67,1.67,0,0,1,21,34.06Z"/><path class="cls-4" d="M21.83,35c.22,0,.11-.5.36-.35s.18.48,0,.73A.58.58,0,0,1,21.83,35Z"/></g></g></svg>