<svg xmlns="http://www.w3.org/2000/svg" viewBox="0 0 201.86 201.92"><defs><style>.cls-1{fill:none;stroke:#191919;stroke-miterlimit:10;}</style></defs><title>Asset 1</title><g id="Layer_2" data-name="Layer 2"><g id="Layer_3" data-name="Layer 3"><path class="cls-1" d="M100.64,201.42C45.35,201.3.4,156.11.5,100.75A100.58,100.58,0,0,1,101.39.5c55.28.2,100.13,45.44,100,100.84S156,201.55,100.64,201.42ZM24,147.69c1.36-3.8,2.29-7.56,4-10.92A48.6,48.6,0,0,1,34.66,127C43.11,117.34,54,111.46,66,107.53a4,4,0,0,1,3.24,1.11c18.36,17.72,45.51,17.82,63.57,0a3.7,3.7,0,0,1,4.58-1c19.19,7.37,35.43,17.76,40.61,39.61,19.62-30.27,19.46-80-16.13-112.91C128.22,3.35,75.5,2.83,41.22,33.34,4.89,65.67,3.58,116,24,147.69Z"/><path class="cls-1" d="M101.06,111.71a34.58,34.58,0,1,1,34.76-34.57A34.49,34.49,0,0,1,101.06,111.71Z"/></g></g></svg>